<mxfile host="app.diagrams.net" agent="Mozilla/5.0 (Windows NT 10.0; Win64; x64) AppleWebKit/537.36 (KHTML, like Gecko) Chrome/130.0.0.0 Safari/537.36 Edg/130.0.0.0" version="24.8.4">
  <diagram name="第 1 页" id="F3sHPZKSkbgXnPj1CmcS">
    <mxGraphModel dx="1108" dy="787" grid="1" gridSize="10" guides="1" tooltips="1" connect="1" arrows="1" fold="1" page="1" pageScale="1" pageWidth="827" pageHeight="1169" math="0" shadow="0">
      <root>
        <mxCell id="0" />
        <mxCell id="1" parent="0" />
        <mxCell id="auRMymsg0V8Ajtvdja2b-4" value="" style="edgeStyle=orthogonalEdgeStyle;rounded=0;orthogonalLoop=1;jettySize=auto;html=1;" edge="1" parent="1" source="auRMymsg0V8Ajtvdja2b-1" target="auRMymsg0V8Ajtvdja2b-3">
          <mxGeometry relative="1" as="geometry" />
        </mxCell>
        <mxCell id="auRMymsg0V8Ajtvdja2b-1" value="类或结构体" style="whiteSpace=wrap;html=1;" vertex="1" parent="1">
          <mxGeometry x="300" y="220" width="120" height="60" as="geometry" />
        </mxCell>
        <mxCell id="auRMymsg0V8Ajtvdja2b-2" value="Odin 序列化优先级" style="text;html=1;align=center;verticalAlign=middle;resizable=0;points=[];autosize=1;strokeColor=#d79b00;fillColor=#ffe6cc;fontSize=20;" vertex="1" parent="1">
          <mxGeometry x="255" y="53" width="190" height="40" as="geometry" />
        </mxCell>
        <mxCell id="auRMymsg0V8Ajtvdja2b-6" value="" style="edgeStyle=orthogonalEdgeStyle;rounded=0;orthogonalLoop=1;jettySize=auto;html=1;" edge="1" parent="1" source="auRMymsg0V8Ajtvdja2b-3" target="auRMymsg0V8Ajtvdja2b-5">
          <mxGeometry relative="1" as="geometry" />
        </mxCell>
        <mxCell id="auRMymsg0V8Ajtvdja2b-8" value="" style="edgeStyle=orthogonalEdgeStyle;rounded=0;orthogonalLoop=1;jettySize=auto;html=1;" edge="1" parent="1" source="auRMymsg0V8Ajtvdja2b-3" target="auRMymsg0V8Ajtvdja2b-7">
          <mxGeometry relative="1" as="geometry" />
        </mxCell>
        <mxCell id="auRMymsg0V8Ajtvdja2b-3" value="是否有Serializable属性" style="whiteSpace=wrap;html=1;" vertex="1" parent="1">
          <mxGeometry x="300" y="360" width="120" height="60" as="geometry" />
        </mxCell>
        <mxCell id="auRMymsg0V8Ajtvdja2b-12" value="" style="edgeStyle=orthogonalEdgeStyle;rounded=0;orthogonalLoop=1;jettySize=auto;html=1;" edge="1" parent="1" source="auRMymsg0V8Ajtvdja2b-5" target="auRMymsg0V8Ajtvdja2b-11">
          <mxGeometry relative="1" as="geometry" />
        </mxCell>
        <mxCell id="auRMymsg0V8Ajtvdja2b-5" value="class：unity 序列化" style="whiteSpace=wrap;html=1;" vertex="1" parent="1">
          <mxGeometry x="300" y="500" width="120" height="60" as="geometry" />
        </mxCell>
        <mxCell id="auRMymsg0V8Ajtvdja2b-7" value="" style="whiteSpace=wrap;html=1;" vertex="1" parent="1">
          <mxGeometry x="500" y="360" width="120" height="60" as="geometry" />
        </mxCell>
        <mxCell id="auRMymsg0V8Ajtvdja2b-9" value="是" style="text;html=1;align=center;verticalAlign=middle;resizable=0;points=[];autosize=1;strokeColor=none;fillColor=none;" vertex="1" parent="1">
          <mxGeometry x="360" y="438" width="40" height="30" as="geometry" />
        </mxCell>
        <mxCell id="auRMymsg0V8Ajtvdja2b-10" value="否" style="text;html=1;align=center;verticalAlign=middle;resizable=0;points=[];autosize=1;strokeColor=none;fillColor=none;" vertex="1" parent="1">
          <mxGeometry x="430" y="358" width="40" height="30" as="geometry" />
        </mxCell>
        <mxCell id="auRMymsg0V8Ajtvdja2b-11" value="u" style="whiteSpace=wrap;html=1;" vertex="1" parent="1">
          <mxGeometry x="300" y="650" width="120" height="60" as="geometry" />
        </mxCell>
        <mxCell id="auRMymsg0V8Ajtvdja2b-13" value="&lt;span style=&quot;text-wrap-mode: wrap;&quot;&gt;filed字段：&lt;/span&gt;" style="text;html=1;align=center;verticalAlign=middle;resizable=0;points=[];autosize=1;strokeColor=none;fillColor=none;" vertex="1" parent="1">
          <mxGeometry x="200" y="658" width="80" height="30" as="geometry" />
        </mxCell>
      </root>
    </mxGraphModel>
  </diagram>
</mxfile>
